<svg xmlns="http://www.w3.org/2000/svg" xmlns:xlink="http://www.w3.org/1999/xlink" viewBox="0 0 57.4 73.8"><defs><style>.cls-1,.cls-4{fill:none}.cls-2{fill:#e7e5e2}.cls-3{fill:#959595}.cls-4{stroke:#959595;stroke-width:1.58px}.cls-5{clip-path:url(#clip-path)}.cls-6{clip-path:url(#clip-path-2)}.cls-7{fill:#101010}</style><clipPath id="clip-path"><rect width="39.54" height="50.08" x="8.98" y="17.51" class="cls-1"/></clipPath><clipPath id="clip-path-2"><rect width="65535" height="65535" x="-33043.68" y="-32318" class="cls-1"/></clipPath></defs><g id="Layer_2" data-name="Layer 2"><g id="Layer_1-2" data-name="Layer 1"><path d="M56.61,73H.79V.79h48.1c3.42,3.18,4.41,4,6.5,5.88l1.22,1.07Z" class="cls-2"/><path d="M0,0H49.2c4.34,4,4.87,4.45,8.2,7.38V73.8H0ZM1.58,1.58V72.22H55.82V8.1l-1-.84c-2-1.8-3-2.66-6.29-5.68h-47" class="cls-3"/><polyline points="46.42 4.22 46.42 10.98 53.17 10.98" class="cls-4"/><g class="cls-5"><g class="cls-6"><g class="cls-6"><rect width="39.54" height="5.27" x="8.98" y="17.51" class="cls-7"/><rect width="39.54" height="5.27" x="8.98" y="28.05" class="cls-7"/><rect width="39.54" height="5.27" x="8.98" y="38.6" class="cls-7"/><rect width="39.54" height="5.27" x="8.98" y="49.14" class="cls-7"/><rect width="39.54" height="5.27" x="8.98" y="59.68" class="cls-7"/></g></g></g></g></g></svg>