<svg xmlns="http://www.w3.org/2000/svg" xmlns:xlink="http://www.w3.org/1999/xlink" id="Layer_1" x="0" y="0" version="1.1" viewBox="0 0 384 384" xml:space="preserve" style="enable-background:new 0 0 384 384"><style type="text/css">.st0{clip-path:url(#SVGID_2_)}.st1{opacity:.5}.st2{fill:#fec2ba}.st3{fill:#5e4b38}.st4{fill:#523d2a}.st5{fill:#7a695a}.st6{fill:#63503e}.st7{fill:#d3cdc6}.st8{fill:#d5d0c9;stroke:#3d250f;stroke-width:2;stroke-miterlimit:10}.st9{fill:#3d250f}.st10{fill:#fff;stroke:#3d250f;stroke-width:2;stroke-miterlimit:10}.st11{fill:#3e260f}</style><g><defs><rect id="SVGID_1_" width="384" height="384"/></defs><use xlink:href="#SVGID_1_" style="overflow:visible;fill:#fff"/><clipPath id="SVGID_2_"><use xlink:href="#SVGID_1_" style="overflow:visible"/></clipPath><g class="st0"><g id="NK91WZ.tif" class="st1"><g><path d="M397.9,172.2c0.3-13.5,6.2-18,15.7-13.9c4.5,2,9.1,2.7,14.1,3.5c8.2,1.2,10.4,7,8.2,14.4 c-2.4,7.7-16.2,15.9-23.8,13.8C402.3,186.9,397.7,179.6,397.9,172.2z" class="st2"/><path d="M23.4,244.4c-0.2,8.3-4.1,16.8-14.2,18.3c-9.8,1.5-19.2-2-25.1-11c-2.6-4.1-1.7-7.6,0.8-11.2 c2.4-3.5,6.1-4.7,9.5-3c5.6,2.6,9.7,2.1,14.1-2.6c2.7-2.9,7.1-4.1,11.2-1.8C23.4,235.3,23.2,239.2,23.4,244.4z" class="st2"/><path d="M396.8,466.2c-6.5,0.9-8.6-4.8-11-9.8c-2.6-5.3-3.9-10.7,0.3-15.9c2.1-2.7,5.3-4.8,8.5-3.5 c7.3,3.3,14.7,6.7,20.7,11.7c5.1,4.2,2.6,9.8-2.4,13.2C408.3,464.8,403.2,465.9,396.8,466.2z" class="st2"/><path d="M29.7,145.7c6.7,0.6,11.3,3.9,11.5,11.2c0.3,6.8-2.7,12.1-10.3,12.6c-7.3,0.3-11.2-4.1-11.7-11.2 C18.8,151.3,21.6,146.5,29.7,145.7z M34.9,157.5c-0.6-3-2.3-5.3-5.6-4.8c-2.6,0.3-4.2,2.4-3.9,5c0.3,3,2.1,5.3,5.4,5 C33.5,162.3,34.6,160.1,34.9,157.5z" class="st3"/><path d="M21.1,404c5.3,0.8,8.2,3.9,8,8.9c0,4.4-3.5,6.4-7.4,6.2c-4.5-0.3-9.1-2-8.5-7.9 C13.7,406.7,16.4,404.2,21.1,404z" class="st3"/><path d="M401.8,242.7c-0.3,4.8-3,7.4-7.6,7.7c-4.1,0.3-7.1-2.1-7.4-6.2c-0.5-4.4,1.5-8,6.5-8.5 C397.9,235.4,400.6,238.2,401.8,242.7z" class="st3"/><path d="M425.4,320.6c-9.2-5.9-14.5-8.5-18.2-7c-2.1,0.9-3.9,6.2-7.7,16.6c-0.9,2.4-1.5,4.4-2,5.8 c-1.4-0.8-4.2-1.8-7.7-1.8c-2.3,0-4.2,0.6-5.4,1.1c-5.6,3.5-5.1,8.5-0.9,11.8c0.6,0.5,2.9,2.4,6.4,2.4c3.9,0,7.6-2.4,9.5-6.4 c1.8-10.1,5.6-17.7,9.7-19.4c1.5-0.6,3.2-0.8,3.2-0.8c4.2,0.2,10.1,1.8,8.5,8.9c-2.1,6.1,0.2,15.4-11.7,14.2 c-2.9-0.3-4.4,3.3-3.8,6.5c0.6,4.2,3.5,6.5,7.6,6.4c3.9-0.2,6.8-2.3,7.3-2.9c3.6-3,4.4-7.9,5.9-17.4c0.5-2.9,0.8-5.4,0.9-7.1 C429.5,327.7,430.9,324.1,425.4,320.6z" class="st4"/><g><path d="M34.7,327.3c1.5-7.3-2.4-12.3-7-18c-2.7,6.8,3.3,12.3,0.3,17.9c-7,0.9-10,5.1-8.6,11.7 c1.1,4.7,5,6.7,9.4,4.8c6.1-2.6,10.1-6.8,6.8-14.1C35.3,328.8,35,328,34.7,327.3z" class="st5"/><path d="M61.8,320c-1.2-22.2-9.4-29.4-24.7-21.3c-1.5,0.8-4.4,0.9-3.3,3.8c0.8,2,2.4,2.9,4.8,2 c13-5,16.3,2.1,16.3,13.2c-1.7,1.1-3.5,2-5.1,3.2c-3.6,3-6.1,6.7-4.4,11.5c1.2,3.5,4.2,5,7.7,4.4c4.7-0.9,8-3.6,9.1-8.5 C63.2,325.3,63.8,322.4,61.8,320z" class="st5"/></g><path d="M351.3,110.1c-1.7-0.9-3.2-1.8-4.8-2.6c-2.6-0.8-5.3-1.7-7.9-2.4c-6.5-1.4-5.6,4.4-6.5,7.4 c-1.4,4.5-2.7,7.9-8.3,8.5c-4.8,0.6-9.7,3.6-8.9,9.5c0.6,4.7,4.8,6.2,9.2,6.1c5.8,0,12-2,11.7-8.2c-0.6-10.9,5.9-11.7,13.6-12.1 c1.4,0.9,3.2,3.2,4.4,0.3C354.5,114.4,355.5,111.2,351.3,110.1z" class="st6"/><path d="M34.9,157.5c-0.2,2.6-1.4,4.8-4.1,5.1c-3.3,0.3-5.1-2-5.4-5c-0.3-2.7,1.4-4.7,3.9-5 C32.6,152.2,34.3,154.5,34.9,157.5z" class="st7"/></g></g><path d="M126,121c-3.8,3.2,0.5,13.9,2.4,19.7c4.4,12.9,2.9,29.8,0,63.7c-2,22.9-3,34.4-9.1,43.6 c-1.2,2-4.4,7.1-8.5,14.4c-3.3,6.1-4.8,10.7-7,18.2c-6.4,21.9-7,40.1-7.4,53.9c-0.8,26.6-1.7,41.9,4.8,61.3 c3.2,9.2,9.1,26.5,24.5,41.6c10.1,10,11,5.9,39.2,26.9c8.3,6.2,11.3,8.9,17.1,9.8c12.7,2,18-7.7,31.9-7.4 c11.5,0.3,12.1,7.1,24.5,9.8c21.2,4.7,41.2-10,44.2-12.3c7.1-5.3,6.5-7.1,29.4-36.8c16.2-21,15.3-18.5,17.1-22.1 c12.3-23.3,10.4-52.2,9.8-61.3c-0.6-9.7-2.4-18.3,2.4-26.9c1.2-2.1,3.6-5.8,2.4-7.4c-1.5-2-6.5,2-12.3,0c-4.7-1.7-4.8-5.4-9.8-7.4 c-5.1-2-9.1,1.2-9.8,0c-1.7-2.6,11.5-21.9,31.9-26.9c7.4-1.8,14.5-1.4,22.1-7.4c3.2-2.4,7.4-5.8,7.4-9.8c0-9.7-24.4-21-46.6-19.7 c-12.6,0.8-13,7.3-29.4,9.8c-5.6,0.9-13.6,0.6-29.4,0c-19.2-0.8-26.9-2-29.4-2.4c-11.7-2.1-19.5-3-19.7-4.8 c-0.2-2.4,33.1,4.7,51.5-12.3c16.9-15.6,13-43.9,12.3-49c-1.2-8.5-5.3-38.3-26.9-44.2c-14.5-3.9-30.6,4.7-39.2,14.7 c-6.5,7.4-7.4,10.7-7.4,12.3c0.5,5.9,7.1,7.3,7.4,12.3c0.5,7-11.2,17.6-22.1,14.7c-7-1.8-12.9-8.8-12.3-14.7 c0.5-4.5,4.4-4.4,9.8-12.3c5.4-8,6.8-15.6,7.4-19.7c0.9-5.9,1.4-8.8,0-9.8c-4.1-2.9-20.7,11.3-31.9,26.9 c-6.7,9.4-21.5,30.1-14.7,46.6c3.3,8.3,11.2,12.9,9.8,14.7c-1.2,1.8-9.5,0.3-14.7-4.8c-10.6-10.6-7-36.8,4.8-53.9 c6.8-9.8,12.3-10.7,12.3-17.1c0-13-22.4-21.9-31.9-24.5C130.4,120.3,127.6,119.5,126,121z" class="st8"/><path d="M167.6,143.1c3.5-3.5,12-11.3,24.5-17.1c26.6-12.3,65.4-11.8,94.4,11c29.8,23.5,43.3,65.5,31.9,93.2 c-1.7,4.1-4.1,9.8-9.8,14.7c-5.1,4.2-14.5,9.2-66.1,2.4l0,0c-14.4-1.8-29.2-6.1-28.9-8c0.2-1.1,5.1-0.6,19.7-1.8 c10.6-0.9,15.9-1.2,19.7-2.4c14.4-4.2,22.7-16.2,23.9-18c10-14.7,7.4-30.9,6.1-40.1c-1.4-8.3-5.3-33.4-23.3-40.1 c-7.6-2.7-14.4-1.2-19.7,0c-16.3,3.8-30.7,16.5-28.9,23.5c1.1,3.6,6.2,3.9,7.1,8.9c0.8,3.8-1.4,7-2.9,9.2 c-1.4,2.1-7.9,12.3-18.5,11c-7-0.8-14.1-6.1-14.7-12.3c-0.9-8.2,10.1-10.7,15.9-25.7c2.3-6.1,4.5-16.3,1.2-18.5 c-4.8-3-21.5,13.3-31.6,27.1c-8.8,12.1-20.3,27.7-15.9,43c3.8,13.2,17.4,18.8,15.7,21.2c-1.4,2.3-13.9-0.3-20.7-8.9 c-5.6-7.1-5.3-15.7-4.8-22.1C143.7,166.7,162.4,148.1,167.6,143.1z" class="st9"/><path d="M218.9,238.3c2.3,0,6.4-0.2,10.7-0.5c10-0.6,18-1.8,23.3-2.6c0.5-0.2,1.1-0.3,1.5-0.6 c2.9-1.2,14.4-6.4,22.1-17.1c1.1-1.5,2.1-3.2,3-5c6.1-14.8,3.6-31.6,3-35.6c-1.1-8-5-35.4-24.1-43.1c-7.6-2.6-15-0.8-18.9,0.3 c-19.2,4.8-32.1,23.3-29.5,29.2c0,0.2,0.2,0.3,0.3,0.6c1.7,2.4,3.6,2.6,4.7,4.7c0.2,0.2,0.3,0.5,0.3,1.1c0.5,0.8,0.8,1.7,0.9,2.7 c0.2,2.9-1.7,6.2-4.5,9.1c-1.5,1.5-3.3,3-5.4,3.9c-0.2,0-0.3,0.2-0.3,0.2c-0.2,0-0.3,0.2-0.3,0.2c-3.5,1.7-7.4,2.3-11.3,1.4 c-2-0.5-6.2-1.4-8.3-5.1c-0.3-0.5-1.8-3.2-1.2-6.7c0.5-2.4,1.8-4.1,2.4-4.8c5.9-7.1,9.2-10.6,12.3-14.7c2.9-3.9,4.5-6.2,4.8-9.8 c0.5-4.5-1.1-10.7-4.8-12.3c-2.4-0.9-5.3-0.2-12.3,4.8c-13.2,9.7-19.8,19.2-19.8,19.2c-8.8,12.7-19.7,28.4-15.1,45.2 c2.1,8,7.1,12.9,11.5,17.3C182.9,238.9,211.8,238.3,218.9,238.3z" class="st10"/><path d="M236.3,170.1c-1.4-3.9,0.9-8.8,4.8-9.8c2.7-0.8,5.9,0.3,7.4,2.4c2.9,4.1-0.2,11.5-4.8,12.3 C240.7,175.4,237.3,173.1,236.3,170.1z" class="st9"/><path d="M177.4,158.6c-0.6-4.4,5.6-9.4,7.6-8.2c1.5,0.9,1.2,5.3,0,8.2c-0.5,1.2-1.7,4.1-3.8,4.1 C179.4,162.8,177.7,160.5,177.4,158.6z" class="st9"/><path d="M175,471.6c-3.8,2.4-4.4,12.1,0,17.1c6.1,7.1,21.2,4.8,29.4-2.4c7.3-6.5,9.8-17.9,7.4-19.7 c-0.9-0.6-2.1,0.3-7.4,2.4c-7.3,3-10.9,4.5-14.7,4.8C181.5,474.8,178.3,469.5,175,471.6z" class="st11"/><path d="M248.5,478.9c-2.3,3.6-0.6,9.7,3,12.7c5.8,5,16.2,1.1,21.6-2.9c10.3-7.6,12.7-22.7,9.8-24.5 c-2.3-1.4-5.8,5.9-17.1,9.8C256.4,477.2,251,475,248.5,478.9z" class="st11"/></g></g></svg>